<?xml version="1.0" encoding="UTF-8"?>
<!DOCTYPE svg PUBLIC "-//W3C//DTD SVG 1.1//EN" "http://www.w3.org/Graphics/SVG/1.1/DTD/svg11.dtd">
<!-- Creator: CorelDRAW -->
<svg xmlns="http://www.w3.org/2000/svg" xml:space="preserve" width="7.88832in" height="2.58764in" version="1.1" style="shape-rendering:geometricPrecision; text-rendering:geometricPrecision; image-rendering:optimizeQuality; fill-rule:evenodd; clip-rule:evenodd"
viewBox="0 0 7838.53 2571.31"
 xmlns:xlink="http://www.w3.org/1999/xlink"
 xmlns:xodm="http://www.corel.com/coreldraw/odm/2003">
 <defs>
  <style type="text/css">
   <![CDATA[
    .fil6 {fill:none}
    .fil0 {fill:black;fill-rule:nonzero}
    .fil1 {fill:#151515;fill-rule:nonzero}
    .fil2 {fill:#426CB3;fill-rule:nonzero}
    .fil4 {fill:#55C6F2;fill-rule:nonzero}
    .fil3 {fill:#794F9F;fill-rule:nonzero}
    .fil5 {fill:#A7519E;fill-rule:nonzero}
   ]]>
  </style>
 </defs>
 <g id="Layer_x0020_1">
  <metadata id="CorelCorpID_0Corel-Layer"/>
  <g id="_2440206827328">
   <path class="fil0" d="M6055.43 1716.43l-215.82 0 0 -1069c0,-31.21 -9.5,-51.31 -28.44,-60.23 -12.28,-6.68 -36.26,-10.04 -71.92,-10.04l0 -110.41 210.78 0c70.27,0 105.41,32.35 105.41,97.03l0 1152.65z"/>
   <path class="fil0" d="M7417.17 868.24l-197.39 649.1 -184.06 -552.06c-21.2,-64.65 -56.32,-97.04 -105.37,-97.04l-98.02 0 -142.9 0 -177.3 0 0 -276.04 -207.45 70.28 0 205.76 -177.34 0 0 160.63 167.28 0 0 384.75c0,113.78 21.48,195.75 64.41,245.93 42.92,50.18 115.15,75.29 216.64,75.29 51.28,0 101.5,-6.15 150.58,-18.43l-3.39 -153.9c-31.45,10.05 -59.55,15.06 -84.28,15.06 -46.13,0 -78.72,-13.93 -97.82,-41.82 -19.11,-27.89 -28.64,-73.06 -28.64,-135.52l0 -371.37 335.22 0c2.47,5.93 5,12.59 7.72,20.07l252.62 697.62c-50.18,108.15 -114.9,162.28 -194.07,162.28 -22.33,0 -45.76,-3.95 -70.25,-11.73l-18.43 170.64c53.55,8.92 94.78,13.38 123.79,13.38 92.58,0 166.18,-26.2 220.83,-78.62 51.31,-47.98 98.13,-130.51 140.56,-247.61l324.51 -886.66 -217.46 0z"/>
   <path class="fil1" d="M4787.69 1214.37c-1.17,6.49 -1.03,8.2 0,0z"/>
   <path class="fil0" d="M5397.98 1515.68c-37.94,45.76 -88.12,68.6 -150.58,68.6 -39.04,0 -71.93,-11.15 -98.68,-33.48 -26.79,-22.3 -40.16,-52.96 -40.16,-91.99 0,-98.13 89.21,-147.21 267.67,-147.21l76.11 0c0.28,1.13 0.55,2.26 0.83,3.4l0 41.78c0,63.56 -18.39,116.55 -55.19,158.91zm272.69 58.55c-5.59,-10.02 -8.37,-45.73 -8.37,-107.05 0,-175.11 -1.1,-274.92 -3.33,-299.47 -0.76,-7.83 -1.85,-15.24 -2.81,-22.75 -7.92,-105.58 -41.55,-211.29 -91.82,-299.71 -75.57,-132.91 -219.46,-197.78 -367.09,-216.3 -241.61,-30.35 -433.17,133.77 -531.58,341.28 -32.35,68.16 -45.89,139.33 -71.96,215.71l-100.82 331.41 -184.01 -552.1c-21.2,-64.66 -56.33,-97.03 -105.41,-97.03l-240.9 0 0 110.44 86.99 0c25.66,0 43.49,6.14 53.54,18.39 6.69,6.69 15.05,24.01 25.1,51.86l252.59 697.62c-50.18,108.15 -114.88,162.28 -194.04,162.28 -22.33,0 -45.76,-3.91 -70.28,-11.7l-18.39 170.61c53.51,8.93 94.77,13.42 123.78,13.42 92.58,0 166.19,-26.24 220.83,-78.65 51.28,-47.96 98.13,-130.48 140.53,-247.58l175.71 -480.07c7.99,-32.1 65.42,-180.58 81.81,-214.07 43.12,-88.04 96.15,-164.64 179.32,-209.77 90.21,-48.98 236.36,-33.07 325.89,33.89 60.67,45.42 97.89,140.77 110.55,232.9 -0.65,17.9 -3.36,37.56 -3.36,58.27l0 11.7c-168.41,0 -287.2,10.05 -356.3,30.12 -134.97,40.17 -202.44,124.37 -202.44,252.62 0,81.43 26.75,146.39 80.29,194.9 53.55,48.53 121.57,72.79 204.08,72.79 119.37,0 215.24,-52.96 287.78,-158.92l1.65 40.13c2.23,64.69 37.38,97.03 105.41,97.03l189.06 0 0 -110.41c-51.32,0 -81.98,-10.6 -92.03,-31.79z"/>
   <path class="fil2" d="M4891.36 2081c-1.94,0 -3.66,-0.7 -5.14,-2.18 -1.47,-1.48 -2.25,-3.19 -2.25,-5.21l0 -177.35c0,-2.02 0.78,-3.73 2.25,-5.22 1.48,-1.48 3.19,-2.18 5.14,-2.18l22.26 0c2.02,0 3.73,0.7 5.22,2.18 1.48,1.49 2.18,3.2 2.18,5.22l0 177.35c0,2.02 -0.7,3.73 -2.18,5.21 -1.49,1.48 -3.2,2.18 -5.22,2.18l-22.26 0zm258.95 -7.39c0,2.02 -0.7,3.73 -2.18,5.21 -1.48,1.48 -3.19,2.18 -5.21,2.18l-20.86 0c-2.02,0 -3.74,-0.7 -5.22,-2.18 -1.48,-1.48 -2.25,-3.19 -2.25,-5.21l0 -69.72c0,-10.98 -2.57,-19.77 -7.62,-26.39 -5.13,-6.61 -13,-9.88 -23.66,-9.88 -9.73,0 -17.35,3.27 -22.88,9.88 -5.6,6.62 -8.41,15.41 -8.41,26.39l0 69.72c0,2.02 -0.7,3.73 -2.18,5.21 -1.48,1.48 -3.19,2.18 -5.21,2.18l-20.86 0c-2.02,0 -3.73,-0.7 -5.21,-2.18 -1.48,-1.48 -2.26,-3.19 -2.26,-5.21l0 -127.94c0,-2.02 0.78,-3.73 2.26,-5.21 1.48,-1.47 3.19,-2.18 5.21,-2.18l20.86 0c2.02,0 3.73,0.7 5.21,2.18 1.48,1.48 2.18,3.19 2.18,5.21l0 6.3c4.75,-4.75 10.36,-8.71 16.81,-11.82 6.39,-3.11 13.93,-4.68 22.72,-4.68 11.13,0 20.46,1.72 28.01,5.22 7.55,3.5 13.54,8.17 18.13,14 4.6,5.84 7.79,12.69 9.73,20.46 1.94,7.79 2.88,15.96 2.88,24.59l0 73.85zm169.14 -33.54c0,-1.94 -0.62,-3.58 -1.94,-4.9 -1.32,-1.32 -3.5,-2.49 -6.69,-3.58 -3.19,-1.09 -7.47,-2.18 -12.77,-3.34 -5.37,-1.09 -12.14,-2.57 -20.31,-4.37 -8.09,-1.79 -14.78,-4.12 -20.07,-6.85 -5.3,-2.72 -9.58,-5.99 -12.77,-9.64 -3.19,-3.66 -5.45,-7.79 -6.69,-12.46 -1.32,-4.67 -1.94,-9.72 -1.94,-15.25 0,-5.52 1.32,-10.89 3.89,-16.18 2.57,-5.3 6.22,-10.04 11.12,-14.17 4.82,-4.12 10.75,-7.47 17.67,-10.03 6.92,-2.57 14.94,-3.82 23.89,-3.82 8.95,0 16.88,1.02 23.97,3.04 7.09,2.02 13.07,4.67 18.05,7.93 4.9,3.34 8.79,7.16 11.52,11.44 2.72,4.29 4.2,8.64 4.59,13 0.23,2.02 -0.47,3.73 -2.02,5.21 -1.56,1.48 -3.34,2.26 -5.38,2.26l-21.09 0c-2.72,0 -4.82,-0.55 -6.15,-1.56 -1.4,-1.01 -2.95,-2.1 -4.59,-3.42 -1.63,-1.32 -3.89,-2.41 -6.61,-3.42 -2.72,-1.01 -6.85,-1.48 -12.3,-1.48 -5.52,0 -10.35,0.78 -14.56,2.41 -4.28,1.63 -6.38,4.59 -6.38,8.79 0,2.03 0.54,3.74 1.55,5.06 1.01,1.4 2.88,2.64 5.77,3.74 2.88,1.09 6.77,2.25 11.82,3.42 5.06,1.17 11.6,2.64 19.61,4.28 16.27,3.5 27.78,8.95 34.48,16.34 6.61,7.39 9.96,16.58 9.96,27.55 0,5.52 -1.32,10.82 -4.05,16.03 -2.72,5.21 -6.78,9.88 -11.99,14.01 -5.21,4.12 -11.67,7.47 -19.22,9.88 -7.54,2.49 -16.1,3.74 -25.68,3.74 -9.73,0 -18.21,-1.17 -25.6,-3.42 -7.39,-2.26 -13.7,-5.29 -18.83,-8.95 -5.14,-3.67 -9.1,-7.71 -11.82,-12.3 -2.72,-4.59 -4.21,-9.02 -4.37,-13.47 -0.23,-2.02 0.47,-3.73 2.03,-5.21 1.56,-1.48 3.34,-2.18 5.37,-2.18l21.09 0c2.72,0 4.82,0.62 6.22,1.87 1.32,1.32 2.88,2.8 4.67,4.43 1.71,1.64 4.12,3.11 7.25,4.37 3.11,1.32 7.78,1.94 14,1.94 2.72,0 5.6,-0.16 8.56,-0.54 2.88,-0.39 5.6,-0.94 8.09,-1.79 2.41,-0.86 4.51,-1.95 6.15,-3.35 1.63,-1.32 2.49,-3.03 2.49,-5.05zm118.56 -94.39c0,-2.02 0.7,-3.73 2.18,-5.21 1.48,-1.47 3.19,-2.18 5.21,-2.18l20.86 0c2.02,0 3.74,0.7 5.21,2.18 1.48,1.48 2.18,3.19 2.18,5.21l0 69.73c0,10.97 2.34,19.76 7.01,26.38 4.67,6.62 12.29,9.89 22.96,9.89 9.72,0 17.12,-3.27 22.26,-9.89 5.05,-6.61 7.62,-15.4 7.62,-26.38l0 -69.73c0,-2.02 0.78,-3.73 2.26,-5.21 1.47,-1.47 3.19,-2.18 5.21,-2.18l20.86 0c2.02,0 3.74,0.7 5.22,2.18 1.48,1.48 2.18,3.19 2.18,5.21l0 127.94c0,2.02 -0.7,3.73 -2.18,5.21 -1.47,1.48 -3.2,2.18 -5.22,2.18l-20.86 0c-2.02,0 -3.74,-0.7 -5.21,-2.18 -1.48,-1.48 -2.26,-3.19 -2.26,-5.21l0 -6.31c-4.2,4.21 -9.41,8.02 -15.64,11.36 -6.22,3.34 -13.69,5.06 -22.49,5.06 -11.12,0 -20.39,-1.71 -27.7,-5.21 -7.31,-3.5 -13.14,-8.17 -17.59,-14.01 -4.43,-5.83 -7.54,-12.68 -9.33,-20.46 -1.79,-7.7 -2.72,-15.87 -2.72,-24.51l0 -73.85zm290.7 25.52c-10.98,0 -18.91,2.41 -23.74,7.23 -4.9,4.91 -7.32,12.84 -7.32,23.81l0 71.37c0,2.02 -0.7,3.73 -2.18,5.21 -1.48,1.48 -3.19,2.18 -5.21,2.18l-20.86 0c-2.02,0 -3.73,-0.7 -5.21,-2.18 -1.48,-1.48 -2.26,-3.19 -2.26,-5.21l0 -127.94c0,-2.02 0.78,-3.73 2.26,-5.21 1.48,-1.47 3.19,-2.18 5.21,-2.18l20.86 0c2.02,0 3.73,0.7 5.21,2.18 1.48,1.48 2.18,3.19 2.18,5.21l0 6.3c4.75,-4.43 9.89,-7.78 15.25,-10.19 5.37,-2.33 12.46,-3.5 21.25,-3.5l12.37 0c2.02,0 3.74,0.7 5.21,2.18 1.48,1.48 2.18,3.19 2.18,5.21l0 18.14c0,1.94 -0.7,3.65 -2.18,5.13 -1.47,1.48 -3.19,2.25 -5.21,2.25l-17.82 0zm100.75 2.18c0.78,-3.81 2.49,-7.93 5.14,-12.37 2.64,-4.37 6.38,-8.49 11.29,-12.3 4.82,-3.81 10.73,-7 17.81,-9.49 7.01,-2.49 15.18,-3.74 24.51,-3.74 9.34,0 17.74,1.26 25.3,3.74 7.55,2.49 14,6.07 19.38,10.81 5.36,4.75 9.57,10.74 12.52,17.98 2.88,7.23 4.35,15.57 4.35,24.9l0 80.7c0,2.02 -0.7,3.73 -2.18,5.21 -1.47,1.48 -3.27,2.18 -5.29,2.18l-20.86 0c-2.02,0 -3.73,-0.7 -5.21,-2.18 -1.48,-1.48 -2.18,-3.19 -2.18,-5.21l0 -9.11c-3.82,5.37 -9.35,9.89 -16.58,13.62 -7.23,3.74 -16.5,5.6 -27.62,5.6 -7.86,0 -14.94,-1.09 -21.16,-3.19 -6.23,-2.1 -11.44,-5.06 -15.64,-8.87 -4.2,-3.82 -7.47,-8.41 -9.72,-13.62 -2.27,-5.21 -3.43,-10.9 -3.43,-17.12 0,-12.6 4.52,-22.49 13.47,-29.64 8.94,-7.16 20.93,-11.99 35.95,-14.56l44.75 -7.7c0,-7.47 -2.49,-12.77 -7.4,-15.88 -4.98,-3.11 -11.12,-4.67 -18.44,-4.67 -4.59,0 -8.09,0.63 -10.66,1.87 -2.57,1.32 -5.06,3.03 -7.39,5.21 -1.64,1.48 -3.19,2.49 -4.52,3.03 -1.4,0.54 -2.95,0.86 -4.59,0.86l-25.52 0c-1.79,0 -3.34,-0.54 -4.67,-1.71 -1.32,-1.09 -1.79,-2.57 -1.4,-4.35zm45.91 77.43c6.22,0 11.74,-0.86 16.58,-2.64 4.82,-1.72 8.87,-4.05 12.21,-7.01 3.27,-2.88 5.75,-6.22 7.4,-9.88 1.64,-3.65 2.49,-7.4 2.49,-11.21l0 -2.72 -37.36 6.53c-7.47,1.32 -12.84,3.2 -16.11,5.61 -3.34,2.49 -4.98,5.83 -4.98,10.03 0,3.81 1.94,6.69 5.91,8.49 3.89,1.87 8.49,2.8 13.86,2.8zm299.72 22.8c0,2.02 -0.7,3.73 -2.18,5.21 -1.48,1.48 -3.19,2.18 -5.21,2.18l-20.86 0c-2.02,0 -3.74,-0.7 -5.22,-2.18 -1.47,-1.48 -2.25,-3.19 -2.25,-5.21l0 -69.72c0,-10.98 -2.57,-19.77 -7.62,-26.39 -5.13,-6.61 -13,-9.88 -23.65,-9.88 -9.73,0 -17.36,3.27 -22.88,9.88 -5.6,6.62 -8.41,15.41 -8.41,26.39l0 69.72c0,2.02 -0.7,3.73 -2.18,5.21 -1.48,1.48 -3.19,2.18 -5.21,2.18l-20.86 0c-2.02,0 -3.73,-0.7 -5.21,-2.18 -1.48,-1.48 -2.26,-3.19 -2.26,-5.21l0 -127.94c0,-2.02 0.78,-3.73 2.26,-5.21 1.48,-1.47 3.19,-2.18 5.21,-2.18l20.86 0c2.02,0 3.73,0.7 5.21,2.18 1.48,1.48 2.18,3.19 2.18,5.21l0 6.3c4.75,-4.75 10.36,-8.71 16.81,-11.82 6.39,-3.11 13.93,-4.68 22.72,-4.68 11.13,0 20.47,1.72 28.01,5.22 7.55,3.5 13.54,8.17 18.13,14 4.6,5.84 7.79,12.69 9.73,20.46 1.94,7.79 2.88,15.96 2.88,24.59l0 73.85zm120.27 -73.62c-0.39,2.72 -0.54,5.92 -0.54,9.58 0,3.66 0.15,6.92 0.54,9.65 0.54,5.68 1.79,10.59 3.81,14.55 2.02,4.05 4.52,7.31 7.55,9.73 3.04,2.49 6.38,4.36 10.03,5.53 3.65,1.17 7.47,1.79 11.29,1.79 4.59,0 8.4,-0.39 11.51,-1.09 3.11,-0.7 5.75,-1.79 7.93,-3.2 2.19,-1.32 4.05,-2.88 5.61,-4.67 1.56,-1.71 3.11,-3.65 4.59,-5.91 1.09,-1.64 2.34,-3.27 3.81,-4.9 1.48,-1.63 3.19,-2.49 5.21,-2.49l20.86 0c2.02,0 3.81,0.7 5.38,2.18 1.55,1.48 2.25,3.27 2.02,5.21 -0.16,3.89 -1.48,8.56 -4.06,14.01 -2.57,5.52 -6.61,10.73 -11.98,15.79 -5.36,5.07 -12.3,9.27 -20.7,12.77 -8.48,3.5 -18.52,5.21 -30.19,5.21 -10.04,0 -19.14,-1.71 -27.17,-5.06 -8.09,-3.34 -15.09,-7.93 -21.01,-13.77 -5.99,-5.76 -10.66,-12.45 -14,-20 -3.42,-7.54 -5.52,-15.55 -6.22,-24.04 -0.39,-3.27 -0.54,-6.92 -0.54,-10.97 0,-3.97 0.16,-7.71 0.54,-11.21 0.55,-8.48 2.57,-16.49 6.07,-24.2 3.5,-7.7 8.17,-14.39 14,-20.16 5.84,-5.75 12.84,-10.34 21.01,-13.77 8.18,-3.34 17.28,-5.07 27.32,-5.07 11.67,0 21.71,1.72 30.19,5.22 8.4,3.5 15.34,7.7 20.7,12.76 5.37,5.05 9.41,10.28 11.98,15.8 2.58,5.52 3.9,10.19 4.06,14.01 0.23,2.02 -0.47,3.73 -2.02,5.21 -1.56,1.47 -3.36,2.18 -5.38,2.18l-20.86 0c-2.02,0 -3.73,-0.85 -5.21,-2.49 -1.47,-1.63 -2.72,-3.27 -3.81,-4.9 -1.48,-2.18 -3.03,-4.14 -4.59,-5.92 -1.56,-1.71 -3.42,-3.27 -5.61,-4.67 -2.18,-1.32 -4.82,-2.41 -7.93,-3.11 -3.11,-0.7 -6.92,-1.09 -11.51,-1.09 -3.82,0 -7.63,0.55 -11.29,1.71 -3.65,1.17 -7,3.03 -10.03,5.52 -3.03,2.49 -5.53,5.76 -7.55,9.73 -2.02,4.05 -3.27,8.87 -3.81,14.55zm177.39 9.66c0,-10.28 1.56,-19.92 4.67,-29.03 3.11,-9.02 7.62,-16.88 13.46,-23.58 5.84,-6.69 12.92,-11.98 21.24,-15.79 8.33,-3.81 17.59,-5.77 27.87,-5.77 10.27,0 19.6,1.88 27.93,5.61 8.33,3.81 15.41,8.79 21.24,15.09 5.84,6.31 10.35,13.77 13.54,22.25 3.2,8.49 4.83,17.44 4.83,26.78l0 12.37c0,2.02 -0.7,3.74 -2.19,5.21 -1.48,1.48 -3.27,2.18 -5.21,2.18l-91.74 0c0,4.21 0.85,7.95 2.64,11.13 1.71,3.19 4.05,5.91 7.01,8.09 2.88,2.26 6.3,3.9 10.11,4.99 3.81,1.09 7.78,1.64 11.83,1.64 5.83,0 10.66,-0.62 14.31,-1.79 3.66,-1.17 6.61,-2.73 9.03,-4.52 2.02,-1.48 3.66,-2.49 4.98,-3.03 1.24,-0.55 2.95,-0.86 5.13,-0.86l22.02 0c1.94,0 3.73,0.7 5.29,2.18 1.56,1.47 2.26,3.27 2.1,5.3 -0.23,2.57 -1.64,5.83 -4.28,9.8 -2.64,4.05 -6.61,8.01 -11.9,11.82 -5.38,3.82 -11.91,7.17 -19.61,9.89 -7.79,2.72 -16.81,4.12 -27.08,4.12 -10.28,0 -19.53,-1.79 -27.87,-5.37 -8.32,-3.5 -15.4,-8.57 -21.24,-15.18 -5.84,-6.61 -10.35,-14.39 -13.46,-23.5 -3.11,-9.1 -4.67,-19.06 -4.67,-30.03zm67.23 -41.17c-5.3,0 -9.81,0.78 -13.54,2.34 -3.81,1.56 -6.92,3.58 -9.49,5.99 -2.57,2.49 -4.6,5.22 -5.92,8.25 -1.4,3.03 -2.26,5.91 -2.64,8.63l62.1 0c-0.39,-2.72 -1.01,-5.6 -2.02,-8.63 -1.01,-3.04 -2.72,-5.77 -4.98,-8.25 -2.26,-2.41 -5.3,-4.43 -9.03,-5.99 -3.81,-1.56 -8.63,-2.34 -14.47,-2.34z"/>
   <path class="fil0" d="M2269.58 665.82l0 -110.4 222.5 0c70.25,0 105.41,32.34 105.41,97.03l0 886.66 465.07 0 0 177.33 -694.26 0 0 -980.33c0,-31.25 -9.51,-51.32 -28.44,-60.23 -12.31,-6.72 -35.74,-10.05 -70.28,-10.05z"/>
   <path class="fil0" d="M3519.26 1003.77c-64.68,0 -117.92,26.2 -159.76,78.61 -41.81,52.44 -62.73,121.59 -62.73,207.45 0,85.89 20.61,154.77 61.91,206.63 41.23,51.86 94.78,77.79 160.59,77.79 65.79,0 119.33,-25.66 160.59,-76.98 41.27,-51.28 61.91,-120.46 61.91,-207.45 0,-86.98 -20.65,-156.4 -61.91,-208.26 -41.27,-51.86 -94.8,-77.79 -160.59,-77.79zm0 -157.27c140.54,0 250.95,39.61 331.24,118.78 80.3,79.2 120.47,187.93 120.47,326.23 0,138.3 -40.45,247.34 -121.29,327.05 -80.88,79.78 -191.02,119.61 -330.41,119.61 -139.43,0 -249.26,-39.83 -329.56,-119.61 -80.33,-79.71 -120.46,-188.75 -120.46,-327.05 0,-139.4 39.85,-248.44 119.6,-327.05 79.75,-78.65 189.89,-117.96 330.41,-117.96z"/>
   <g>
    <path class="fil2" d="M347.33 1399.08c-85.23,109.69 -114.01,259.38 -80.29,393.25 37.49,149.07 152.01,273.34 296.31,327.63 140.25,52.76 305.34,34.27 430.16,-48.81 65.85,-43.83 114.18,-106.47 146.91,-177.57 2.39,-5.25 4.56,-10.15 6.61,-14.89l0 -94.02c-6.61,0.83 -12.44,4.91 -15.19,8.99 -0.94,1.41 -1.89,3.23 -2.85,5.29 -0.52,0.45 -0.9,0.96 -1.14,1.61 -23.94,67.63 -50.11,133.36 -102.76,187.65 -94.53,97.51 -248.29,136.59 -380.21,109.65 -140.63,-28.67 -260.65,-127.32 -315.9,-258.66 -50.7,-120.42 -39.42,-263.66 27.51,-375.68 69.93,-117.1 209.47,-202.86 346.15,-215.03 15.06,-3.09 20.52,-5.76 22.37,-16.43 1.23,-4.05 1.37,-8.3 0.58,-12.31l-105.99 0c-106.54,29.05 -205.83,93.81 -272.28,179.32z"/>
    <path class="fil3" d="M347.33 1053.83c-85.23,-109.69 -114.01,-259.38 -80.29,-393.25 37.49,-149.06 152.01,-273.33 296.31,-327.63 140.25,-52.76 305.34,-34.26 430.16,48.81 65.85,43.84 114.18,106.47 146.91,177.57 2.39,5.25 4.56,10.16 6.61,14.89l0 94.02c-6.61,-0.83 -12.44,-4.9 -15.19,-8.98 -0.94,-1.41 -1.89,-3.23 -2.85,-5.28 -0.52,-0.45 -0.9,-0.96 -1.14,-1.61 -23.94,-67.64 -50.11,-133.36 -102.76,-187.66 -94.53,-97.51 -248.29,-136.58 -380.21,-109.65 -140.63,28.67 -260.65,127.32 -315.9,258.66 -50.7,120.43 -39.42,263.67 27.51,375.69 69.93,117.1 209.47,202.85 346.15,215.02 15.06,0 20.52,5.76 22.37,16.43 1.23,4.05 -13,8.3 -13.8,12.32l-91.61 0c-106.54,-29.06 -205.83,-93.82 -272.28,-179.33z"/>
    <path class="fil4" d="M1946.72 1399.08c85.23,109.69 114.01,259.38 80.29,393.25 -37.49,149.07 -152.01,273.34 -296.31,327.63 -140.25,52.76 -305.34,34.27 -430.16,-48.81 -65.85,-43.83 -114.19,-106.47 -146.91,-177.57 -2.4,-5.25 -4.56,-10.15 -6.61,-14.89l0 -94.02c6.61,0.83 12.44,4.91 15.19,8.99 0.94,1.41 1.89,3.23 2.85,5.29 0.52,0.45 0.9,0.96 1.14,1.61 23.94,67.63 50.11,133.36 102.76,187.65 94.53,97.51 248.29,136.59 380.21,109.65 140.63,-28.67 260.65,-127.32 315.9,-258.66 50.7,-120.42 39.41,-263.66 -27.51,-375.68 -69.93,-117.1 -209.47,-202.86 -346.16,-215.03 -13.65,-2.06 -20.5,-5.76 -22.36,-16.43 -1.23,-4.05 5.7,-8.3 6.49,-12.31l98.92 0c106.54,29.05 205.83,93.81 272.28,179.32z"/>
    <path class="fil5" d="M1946.72 1053.83c85.23,-109.69 114.01,-259.38 80.29,-393.25 -37.49,-149.06 -152.01,-273.33 -296.31,-327.63 -140.25,-52.76 -305.34,-34.26 -430.16,48.81 -65.85,43.84 -114.19,106.47 -146.91,177.57 -2.4,5.25 -4.56,10.16 -6.61,14.89l0 94.02c6.61,-0.83 12.44,-4.9 15.19,-8.98 0.94,-1.41 1.89,-3.23 2.85,-5.28 0.52,-0.45 0.9,-0.96 1.14,-1.61 23.94,-67.64 50.11,-133.36 102.76,-187.66 94.53,-97.51 248.29,-136.58 380.21,-109.65 140.63,28.67 260.65,127.32 315.9,258.66 50.7,120.43 39.41,263.67 -27.51,375.69 -67.5,113.02 -255.15,206.93 -346.16,215.02 -14.06,0 -20.5,5.76 -22.36,16.43 -1.23,4.05 -1.37,8.3 -0.58,12.32l105.99 0c106.54,-29.06 205.83,-93.82 272.28,-179.33z"/>
    <path class="fil2" d="M1003.28 1362.73c-36.64,-36.01 -55.4,-86.3 -56.6,-137.34l-123.41 0c-0.2,48.02 -0.45,96.07 -0.65,144.09 -0.27,0.03 -0.55,0.03 -0.83,0.03l0 201.27 -0.1 0c-0.07,11.87 -0.11,23.7 -0.17,35.58 -0.07,14.85 -0.65,29.8 -2.58,44.52 -4.45,34.22 -19.44,62.46 -49.93,80.81 -46.14,27.75 -88.87,9.92 -121.7,-24.97 -14.3,-15.23 -23.94,-32.21 -26.13,-54.06 -4.29,-43.01 32.52,-93.02 80.4,-102.31 7.27,-1.41 32.9,-4.26 38.93,-4.36 3.23,-0.07 6.42,-0.13 9.64,-0.2l0 -174.9c-3.23,0.08 -6.42,0.15 -9.64,0.18 -5.55,0.11 -11.11,0.83 -16.56,1.99 -2.71,-0.41 -5.49,-0.55 -8.3,-0.11 -30.8,4.84 -62.29,9.2 -91.44,19.51 -52.28,18.52 -93.5,54.03 -124.31,99.61 -40.48,59.96 -57.76,126.74 -46.79,199.05 10.7,70.32 48.95,122.99 103.38,168 60.75,50.22 128.8,63.29 203.95,54.65 65.38,-7.55 118.13,-36.95 163.92,-84.86 40.65,-42.54 61.2,-92.51 69.53,-148.08 4.98,-33.12 2.44,-67.4 3.19,-101.18 0.51,-20.55 8.92,-29.99 29.4,-32.48 7.37,-0.9 14.82,-2.02 22.23,-2.02 32.78,-0.04 65.54,-0.04 98.34,-0.04l0 -123.01c-52,-0.75 -104.21,-20.48 -143.75,-59.37z"/>
    <path class="fil5" d="M1843.88 779.94c-3.87,-94.7 -50.11,-164.08 -125.23,-215.29 -51.2,-34.93 -109.69,-46.92 -172.08,-39 -95.19,12.07 -166.47,59.71 -213.35,142.79 -28.95,51.28 -36.84,108.31 -35.98,166.15 0.76,52.51 -7.68,60.23 -58.89,59.89 -30.73,-0.17 -61.05,0.07 -91.34,0.45l0 123.1c52.81,0.23 106.22,19.78 146.63,58.62 39.61,38.03 58.31,93.43 56.46,148.72l120.56 0c0.27,-49.73 0.52,-99.47 0.79,-149.21 0.27,0 0.54,0 0.86,0l0 -222.91 0 0c-0.04,-19.78 0.07,-39.65 0.45,-47.87 1.95,-39.49 15.23,-74.37 50.04,-95.81 52.06,-32.1 96.45,-11.55 127.25,29.02 30.29,39.89 33.82,80.2 -9.5,124.58 -18.97,19.45 -59.47,28.91 -96.59,33.58l0 178.97c0.86,-0.03 1.71,0 2.54,-0.03 173.83,-5.97 252.65,-125.37 264.9,-148.04 24.65,-45.72 34.64,-94.88 32.47,-147.7z"/>
    <path class="fil3" d="M1000.21 897.54c0,-0.07 0,-0.34 0.03,-0.52l-173.35 0.9c0,0.03 0,0.09 0,0.13 -1.44,-0.04 -2.92,-0.07 -4.36,-0.11l-20.34 0.11 0 -0.62c-26.58,-0.61 -53.37,-1.44 -80.78,-2.95 -159.67,-8.82 -103.14,-220.24 21.47,-191.02 40.72,9.57 84.75,37.7 84.75,79.99l0 28.22c-0.07,4.9 -0.16,9.81 -0.27,14.68l171.51 0c-0.18,-7.1 -0.41,-14.27 -0.61,-21.4 -1.14,-35.06 -21.24,-122.01 -37.26,-148.04 -50.07,-81.43 -148.72,-162.55 -293.08,-122.6 -191.71,53.03 -216.71,243.47 -209.51,298.31 10.91,82.7 85.16,241.03 287.33,240.24 17.46,-0.07 35.4,0.14 52.96,1.89 14.13,1.41 22.36,10.26 22.95,25.01 0.76,18.32 2.02,36.66 1.95,55.01 -0.07,23.53 -0.2,47.06 -0.31,70.59l123.38 0c-1.3,-54.44 17.39,-109.73 56.38,-149.41 38.25,-38.9 90.83,-58.21 143.97,-57.94l0 -123.1c-49.05,0.65 -97.79,1.71 -146.8,2.61z"/>
    <path class="fil4" d="M1837.55 1621.5c-4.12,-76.83 -34.82,-142.24 -95.25,-192.05 -28.27,-23.29 -59.58,-39.92 -94.88,-50.73 -44.87,-13.72 -90.52,-11.35 -136.21,-11.63 -30.33,-0.14 -41.23,-11.08 -41.06,-41.2 0.14,-33.52 0.34,-67.02 0.52,-100.53l-120.6 0c-1.71,50.6 -20.5,101.09 -56.87,138.16 -39.09,39.89 -92.54,59.34 -146.19,58.55l0 123.01c42.33,0 84.66,-0.04 126.98,-0.04l0 -0.11 234.13 0 0 0c18.7,0 37.4,0 56.08,0 37.73,-0.07 66.03,18.49 86.13,47.61 8.88,12.82 11.38,31.41 12.78,47.75 3.33,38.89 -23.66,62.49 -50.25,82.6 -27.75,20.99 -64.79,20.27 -93.94,0.99 -26.58,-17.56 -41.23,-40.82 -47.44,-71.28 -0.72,-3.53 -1.95,-6.89 -3.43,-10.15l0 -25.86 -174.9 0 0 29.43c0,5.21 0.55,10.29 1.48,15.3 0.14,1.34 0.03,2.57 0.23,3.95 10.6,75.46 37.22,142.34 101.59,188.88 40.54,29.27 84.31,52.66 134.7,56.08 103.48,7.07 191.6,-24.42 255.02,-110.75 38.9,-52.92 54.81,-113.53 51.35,-177.99z"/>
   </g>
  </g>
  <rect class="fil6" x="-0" y="-0" width="7838.53" height="2571.31"/>
 </g>
</svg>
